#!OML:ASF F:\VICON\USERDATA\INSTALL\rory3\rory3.ASF
:FULLY-SPECIFIED
:DEGREES
91
root 5.3166 18.014 -12.7218 -3.04186 -3.45322 0.137736
lowerback 11.1757 0.587122 -0.0826355
upperback 0.940419 0.823126 0.98297
thorax -5.30116 0.417095 0.946596
lowerneck -15.9685 -2.4739 -1.79438
upperneck 21.9327 -2.89597 -0.374359
head 9.59528 -1.54069 -0.203045
rclavicle 1.08835e-014 -4.37326e-015
rhumerus -26.5989 -17.6892 -79.448
rradius 26.6947
rwrist 6.20321
rhand -15.7157 23.5141
rfingers 7.12502
rthumb 10.4744 -6.20499
lclavicle 1.08835e-014 -4.37326e-015
lhumerus -32.5345 4.95849 83.0548
lradius 23.2606
lwrist 5.94582
lhand -28.5302 23.4619
lfingers 7.12502
lthumb -1.89801 53.4332
rfemur -19.7439 0.798435 21.0422
rtibia 75.6754
rfoot -0.193163 -7.35
rtoes 11.9715
lfemur -11.325 -1.86091 -25.1097
ltibia 28.2545
lfoot -11.2087 -0.634318
ltoes -0.393787
92
root 5.31799 18.0161 -12.5591 -3.11995 -2.98745 0.125923
lowerback 11.4499 0.427653 -0.0564766
upperback 0.929107 0.614666 0.957882
thorax -5.46179 0.3139 0.936728
lowerneck -16.1816 -2.50375 -1.52396
upperneck 22.0839 -2.96399 -0.547144
head 9.68101 -1.56914 -0.321159
rclavicle 8.52289e-015 1.98785e-015
rhumerus -26.9747 -17.969 -79.5008
rradius 26.7583
rwrist 5.35744
rhand -16.0733 24.8277
rfingers 7.12502
rthumb 10.1295 -4.90845
lclavicle 8.52289e-015 1.98785e-015
lhumerus -32.1826 4.1991 83.1459
lradius 23.8839
lwrist 5.02309
lhand -27.413 25.9648
lfingers 7.12502
lthumb -0.818982 55.9429
rfemur -20.9049 0.421339 21.0874
rtibia 75.4749
rfoot -1.2661 -7.17996
rtoes 11.8679
lfemur -10.5868 -2.27038 -25.2124
ltibia 28.0855
lfoot -11.2342 -0.360285
ltoes -0.00156462
93
root 5.31505 18.0099 -12.4075 -3.13676 -2.59251 0.0551728
lowerback 11.8114 0.252917 -0.104172
upperback 0.809772 0.38448 1.04469
thorax -5.78644 0.204027 1.09123
lowerneck -16.0112 -2.5165 -1.53863
upperneck 22.0762 -2.99103 -0.510359
head 9.64735 -1.57926 -0.306943
rclavicle -7.10655e-015 -2.38542e-015
rhumerus -27.3687 -17.5674 -79.6347
rradius 26.6281
rwrist 3.23251
rhand -16.6124 24.999
rfingers 7.12502
rthumb 9.60934 -4.76181
lclavicle -7.10655e-015 -2.38542e-015
lhumerus -31.9364 3.45558 83.323
lradius 24.3857
lwrist 4.57611
lhand -27.1404 28.0898
lfingers 7.12502
lthumb -0.555726 58.0688
rfemur -22.1417 0.088447 21.2459
rtibia 75.1306
rfoot -2.23846 -7.00089
rtoes 10.9093
lfemur -10.0155 -2.33774 -25.2044
ltibia 27.9965
lfoot -11.3212 -0.377316
ltoes 1.43077
94
root 5.32046 18.003 -12.2396 -3.16373 -2.48903 0.24534
lowerback 11.8686 0.129099 -0.359399
upperback 0.843413 0.189102 1.0947
thorax -5.77995 0.11507 1.32039
lowerneck -15.9867 -2.48778 -1.69764
upperneck 22.0653 -2.90843 -0.513844
head 9.64149 -1.55496 -0.270616
rclavicle -4.07509e-015 -5.56597e-015
rhumerus -27.4236 -17.0494 -79.8601
rradius 26.8678
rwrist 2.52627
rhand -16.9004 23.1308
rfingers 7.12502
rthumb 9.33142 -6.64268
lclavicle -4.07509e-015 -5.56597e-015
lhumerus -31.553 2.86681 83.5399
lradius 24.8657
lwrist 4.47611
lhand -27.4686 28.9805
lfingers 7.12502
lthumb -0.872634 58.9585
rfemur -23.2305 0.0703046 21.0616
rtibia 74.603
rfoot -3.30524 -6.6683
rtoes 10.2237
lfemur -9.29721 -2.19766 -25.5205
ltibia 27.9211
lfoot -11.9468 -0.231356
ltoes 0.808222
95
root 5.32501 18.0075 -12.0611 -3.10655 -2.39535 0.374038
lowerback 11.6792 0.0495634 -0.534386
upperback 1.11345 0.0595212 1.11625
thorax -5.38657 0.0525668 1.46134
lowerneck -16.8539 -2.52706 -1.69772
upperneck 22.341 -2.91866 -0.61802
head 9.90042 -1.57017 -0.323497
rclavicle 5.61567e-015 1.59028e-015
rhumerus -26.982 -17.1466 -80.0525
rradius 26.8211
rwrist 2.33698
rhand -16.825 23.2334
rfingers 7.12502
rthumb 9.40421 -6.53682
lclavicle 5.61567e-015 1.59028e-015
lhumerus -30.7486 2.63985 83.5218
lradius 25.6573
lwrist 3.45437
lhand -26.6239 29.5677
lfingers 7.12502
lthumb -0.0568651 59.5474
rfemur -24.2663 0.0581969 20.9403
rtibia 73.8694
rfoot -4.39608 -6.39044
rtoes 6.99156
lfemur -8.63831 -2.23893 -25.7641
ltibia 27.8553
lfoot -12.7093 -0.0887436
ltoes 0.403929
96
root 5.32772 18.0072 -11.8923 -3.07372 -2.07598 0.410414
lowerback 11.665 -0.0997066 -0.609066
upperback 0.75431 -0.14285 1.16476
thorax -5.75069 -0.0403941 1.58935
lowerneck -15.468 -2.48327 -1.73725
upperneck 22.0882 -2.86521 -0.674053
head 9.5505 -1.55804 -0.306756
rclavicle -8.52289e-015 7.95139e-016
rhumerus -28.1205 -16.7158 -79.8798
rradius 27.1768
rwrist 1.84495
rhand -16.5839 23.6176
rfingers 7.12502
rthumb 9.63682 -6.14201
lclavicle -8.52289e-015 7.95139e-016
lhumerus -31.5246 1.79573 83.7345
lradius 26.5421
lwrist 4.34851
lhand -27.3254 25.1638
lfingers 7.12502
lthumb -0.73439 55.1423
rfemur -25.2773 -0.15987 20.9427
rtibia 73.0022
rfoot -5.1691 -6.30924
rtoes 2.9177
lfemur -8.04745 -2.38315 -25.8905
ltibia 27.8383
lfoot -13.4118 -0.118961
ltoes 0.0811806
97
root 5.32762 17.9951 -11.7215 -3.03571 -1.88928 0.499932
lowerback 11.4863 -0.101958 -0.678394
upperback 0.814357 -0.158963 1.09803
thorax -5.58691 -0.0488007 1.55927
lowerneck -15.509 -2.49594 -1.44977
upperneck 22.1133 -2.94946 -0.705302
head 9.56134 -1.57642 -0.376888
rclavicle -4.94477e-015 5.56597e-015
rhumerus -28.481 -16.7344 -80.0371
rradius 27.5859
rwrist 1.4881
rhand -16.9185 23.489
rfingers 7.12502
rthumb 9.31399 -6.28528
lclavicle -4.94477e-015 5.56597e-015
lhumerus -31.2999 0.93955 83.7671
lradius 27.3442
lwrist 3.39925
lhand -26.0041 26.1477
lfingers 7.12502
lthumb 0.54178 56.1267
rfemur -26.3294 -0.227954 20.9086
rtibia 72.0429
rfoot -6.01559 -6.25046
rtoes 2.04718
lfemur -7.53329 -2.42547 -26.063
ltibia 27.9313
lfoot -13.584 0.157028
ltoes 0.995003
98
root 5.32868 17.9699 -11.5513 -2.92696 -1.67969 0.48091
lowerback 11.3557 -0.176209 -0.666334
upperback 0.858608 -0.255438 1.10832
thorax -5.46423 -0.0974855 1.57723
lowerneck -15.6943 -2.51656 -1.30875
upperneck 22.2375 -2.98914 -0.799484
head 9.6357 -1.59344 -0.442119
rclavicle 1.34428e-014 -4.77083e-015
rhumerus -28.657 -16.7496 -80.1542
rradius 27.8617
rwrist 1.3735
rhand -17.0698 23.1069
rfingers 7.12502
rthumb 9.16801 -6.6738
lclavicle 1.34428e-014 -4.77083e-015
lhumerus -30.9068 0.233023 83.8045
lradius 28.0581
lwrist 2.32035
lhand -26.9924 20.5794
lfingers 7.12502
lthumb -0.412776 50.5588
rfemur -27.4266 -0.292612 20.9956
rtibia 71.0019
rfoot -7.21398 -5.99387
rtoes 0.823258
lfemur -7.13213 -2.58693 -26.1348
ltibia 28.0883
lfoot -13.8248 0.522249
ltoes 1.53843
99
root 5.32958 17.9377 -11.3875 -2.83826 -1.42508 0.690387
lowerback 11.4524 -0.363527 -0.969789
upperback 0.684395 -0.538597 1.17476
thorax -5.68927 -0.22553 1.86632
lowerneck -15.3335 -2.44717 -1.48593
upperneck 22.1175 -2.8498 -0.813693
head 9.52867 -1.54617 -0.393187
rclavicle -1.41634e-015 -1.27222e-014
rhumerus -29.1309 -16.221 -80.1293
rradius 28.0932
rwrist 1.15223
rhand -17.0583 23.1261
rfingers 7.12502
rthumb 9.17907 -6.6541
lclavicle -1.41634e-015 -1.27222e-014
lhumerus -30.9625 -0.0027353 83.8538
lradius 28.7197
lwrist 2.39719
lhand -31.1268 8.17787
lfingers 7.12502
lthumb -4.40563 38.112
rfemur -28.4929 -0.457151 20.8163
rtibia 69.8496
rfoot -7.55182 -6.5059
rtoes 3.53854
lfemur -6.69529 -2.64121 -26.4478
ltibia 28.1972
lfoot -14.3288 0.657045
ltoes 1.27269
100
root 5.32859 17.9291 -11.2223 -2.89267 -1.36197 0.995544
lowerback 11.5244 -0.46053 -1.40492
upperback 0.671722 -0.723147 1.19548
thorax -5.73019 -0.304277 2.16511
lowerneck -15.1414 -2.37804 -1.53421
upperneck 21.9449 -2.74299 -0.822784
head 9.43265 -1.5018 -0.37032
rclavicle -5.1684e-015 1.43125e-014
rhumerus -29.4926 -15.7829 -80.1876
rradius 28.3053
rwrist 1.18353
rhand -17.1845 23.0937
rfingers 7.12502
rthumb 9.05728 -6.69185
lclavicle -5.1684e-015 1.43125e-014
lhumerus -30.7571 -0.460995 83.913
lradius 29.3093
lwrist 3.25488
lhand -32.0608 3.34026
lfingers 7.12502
lthumb -5.30743 33.2538
rfemur -29.2511 -0.466835 20.5143
rtibia 68.4385
rfoot -8.16384 -6.45458
rtoes 4.05807
lfemur -6.01569 -2.44359 -26.8374
ltibia 28.2817
lfoot -14.9721 0.574921
ltoes 1.8678
101
root 5.32596 17.9267 -11.0557 -3.02071 -1.42364 1.25654
lowerback 11.7015 -0.361981 -1.70914
upperback 0.774023 -0.640549 1.08817
thorax -5.72321 -0.258186 2.21254
lowerneck -15.4461 -2.45479 -1.47348
upperneck 22.0926 -2.88425 -0.722406
head 9.54227 -1.55066 -0.3695
rclavicle -1.41883e-014 1.19271e-015
rhumerus -29.7164 -16.0459 -80.2619
rradius 28.4779
rwrist 1.15623
rhand -17.3074 22.9059
rfingers 7.12502
rthumb 8.93872 -6.88476
lclavicle -1.41883e-014 1.19271e-015
lhumerus -30.2432 -1.42968 83.9265
lradius 29.9481
lwrist 3.67252
lhand -29.3861 12.7859
lfingers 7.12502
lthumb -2.72456 42.7483
rfemur -29.8134 -0.381034 20.293
rtibia 66.7983
rfoot -8.69554 -6.96104
rtoes 4.33667
lfemur -5.18048 -2.17102 -27.1752
ltibia 28.2517
lfoot -15.6962 0.669167
ltoes 1.23323
